<svg id="leaf" width="20" height="20" viewBox="0 0 20 20" fill="none" xmlns="http://www.w3.org/2000/svg">
<path d="M15.4409 14.5952L15.4403 14.5958C12.3022 17.6138 7.79504 18.1834 4.86709 16.2081L4.70119 16.0961L4.55567 16.2335C3.92 16.8335 3.25351 17.7501 2.7521 18.5036C2.49976 18.8828 2.28624 19.2253 2.13576 19.473C2.07188 19.5782 2.01931 19.6664 1.97988 19.7332L0.456095 19.5598C4.16718 14.5222 7.76624 10.9906 13.1865 7.28841L12.9452 6.85294L13.0455 7.08197C12.9452 6.85294 12.9452 6.85297 12.9451 6.85301L12.9447 6.85316L12.9435 6.85369L12.939 6.85569L12.9215 6.8634L12.8543 6.89345C12.7955 6.91989 12.7092 6.95904 12.5988 7.01016C12.378 7.11241 12.0604 7.2626 11.6721 7.45493C10.8956 7.83947 9.83501 8.39308 8.69884 9.06933C6.57378 10.3342 4.14152 12.0524 2.83796 13.9187C1.44024 11.1378 2.20237 7.36535 5.03693 4.63921C5.97092 3.74095 7.24849 3.16556 8.7555 2.77763C10.2621 2.3898 11.977 2.19436 13.7706 2.0415C15.7071 1.88622 17.2925 1.43169 18.3951 1.0153C18.9466 0.807028 19.3778 0.608109 19.6724 0.460534C19.6852 0.454092 19.6978 0.447745 19.7102 0.441501C19.7092 0.451847 19.7082 0.462353 19.7071 0.473018C19.6768 0.789759 19.6296 1.2465 19.5618 1.8053C19.4263 2.92325 19.2092 4.448 18.8827 6.07654C18.556 7.70607 18.1209 9.43372 17.551 10.9597C16.9788 12.4914 16.2805 13.793 15.4409 14.5952Z" fill="#BCE3C0" stroke="#39553A" stroke-width="0.5"/>
</svg>
