<svg id="cook" viewBox="0 0 27 26" fill="none" xmlns="http://www.w3.org/2000/svg">
<path d="M24.6346 2.40464C23.1069 0.853981 21.0756 0 18.9149 0C16.8951 0 14.9881 0.746432 13.5 2.11063C12.0119 0.746373 10.1049 0 8.0851 0C5.92449 0 3.89317 0.853981 2.3654 2.40464C-0.788465 5.60576 -0.788465 10.8143 2.3654 14.0155L3.33612 15.0007V25.5626C3.33612 25.8041 3.52908 26 3.76709 26H23.233C23.471 26 23.664 25.8041 23.664 25.5626V15.0007L24.6347 14.0155C27.7884 10.8143 27.7884 5.60576 24.6346 2.40464ZM4.19801 25.1251V24.2503H22.802V25.1251H4.19801ZM24.0251 13.3968L22.9282 14.5102C22.8473 14.5922 22.8019 14.7035 22.8019 14.8195V23.3754H4.19801V14.8195C4.19801 14.7035 4.15261 14.5922 4.07176 14.5102L2.97479 13.3968C0.157032 10.5368 0.157032 5.88327 2.97479 3.02323C4.33977 1.6378 6.15463 0.874803 8.08504 0.874803C9.87105 0.874803 11.5578 1.52838 12.8813 2.72333L10.7572 4.8791C10.5889 5.04993 10.5889 5.32691 10.7572 5.49769C10.8414 5.58313 10.9517 5.62582 11.062 5.62582C11.1722 5.62582 11.2826 5.58313 11.3667 5.49769L13.7843 3.04382C13.7879 3.04026 13.7908 3.03647 13.7941 3.03285C13.7976 3.02953 13.8012 3.02661 13.8046 3.02317C15.1696 1.63774 16.9845 0.874745 18.9148 0.874745C20.8452 0.874745 22.66 1.63774 24.0251 3.02317C26.8429 5.88327 26.8429 10.5368 24.0251 13.3968Z" fill="black"/>
<path d="M21.5096 14.3821H18.9736L20.5487 10.5537C20.6404 10.3308 20.5367 10.0746 20.3171 9.98152C20.0974 9.88843 19.845 9.99371 19.7533 10.2166L18.0395 14.3821H13.9316V10.3852C13.9316 10.1436 13.7386 9.94775 13.5006 9.94775C13.2626 9.94775 13.0696 10.1436 13.0696 10.3852V14.3821H8.96172L7.24794 10.2166C7.15623 9.99365 6.90379 9.88855 6.68417 9.98152C6.46454 10.0746 6.36082 10.3308 6.45253 10.5537L8.0276 14.3821H5.49152C5.25351 14.3821 5.06055 14.5779 5.06055 14.8195C5.06055 15.0611 5.25351 15.2569 5.49152 15.2569H21.5096C21.7477 15.2569 21.9406 15.0611 21.9406 14.8195C21.9406 14.5779 21.7477 14.3821 21.5096 14.3821Z" fill="black"/>
</svg>
